<?xml version="1.0" encoding="UTF-8" standalone="no"?>
<svg width="168px" height="38px" viewBox="0 0 168 38" version="1.1" xmlns="http://www.w3.org/2000/svg" xmlns:xlink="http://www.w3.org/1999/xlink">
    <!-- Generator: Sketch 43.1 (39012) - http://www.bohemiancoding.com/sketch -->
    <title>NCTA Logo</title>
    <desc>Created with Sketch.</desc>
    <defs></defs>
    <g id="Symbols" stroke="none" stroke-width="1" fill="none" fill-rule="evenodd">
        <g id="Icons/Logo">
            <g id="NCTA-Logo">
                <path d="M19.1308,30.1933586 C23.5488,29.2125655 26.8514667,25.3391862 26.8514667,20.7012207 C26.8514667,16.0626 23.5488,12.1892207 19.1308,11.2084276 C17.2248,13.9018414 16.1048,17.1718069 16.1048,20.7012207 C16.1048,24.2299793 17.2248,27.4999448 19.1308,30.1933586" id="Fill-1" fill="#5AC9E7"></path>
                <path d="M33.0464667,4.05138966 C30.1318,4.05138966 27.3891333,4.77535517 24.9938,6.04901034 C30.2878,8.86494138 33.8838,14.3703552 33.8838,20.7012862 C33.8838,27.0322172 30.2878,32.5369759 24.9938,35.3529069 C27.3891333,36.6272172 30.1318,37.3505276 33.0464667,37.3505276 C42.4031333,37.3505276 49.9884667,29.896631 49.9884667,20.7012862 C49.9884667,11.5052862 42.4031333,4.05138966 33.0464667,4.05138966" id="Fill-3" fill="#5AC9E7"></path>
                <path d="M19.1308,30.1933586 C18.4254667,30.3499448 17.6948,30.4397034 16.9421333,30.4397034 C11.4688,30.4397034 7.0328,26.079531 7.0328,20.7012207 C7.0328,15.3229103 11.4688,10.9620828 16.9421333,10.9620828 C17.6948,10.9620828 18.4254667,11.0524966 19.1308,11.2084276 C20.6441333,9.0706 22.6514667,7.29573793 24.9941333,6.04894483 C22.5994667,4.77528966 19.8568,4.05132414 16.9421333,4.05132414 C7.58546667,4.05132414 0.000133333333,11.5058759 0.000133333333,20.7012207 C0.000133333333,29.8965655 7.58546667,37.3504621 16.9421333,37.3504621 C19.8568,37.3504621 22.5994667,36.6271517 24.9941333,35.3528414 C22.6514667,34.1067034 20.6441333,32.3318414 19.1308,30.1933586" id="Fill-5" fill="#E71B4F"></path>
                <path d="M33.8837333,20.7010241 C33.8837333,14.3700931 30.2877333,8.86533448 24.9944,6.04940345 C22.6510667,7.29554138 20.6437333,9.07040345 19.1310667,11.2088862 C23.5490667,12.1890241 26.8510667,16.0624034 26.8510667,20.7010241 C26.8510667,25.3396448 23.5490667,29.2130241 19.1310667,30.1931621 C20.6437333,32.3316448 22.6510667,34.1065069 24.9944,35.3526448 C30.2877333,32.5367138 33.8837333,27.0319552 33.8837333,20.7010241" id="Fill-7" fill="#53284E"></path>
                <path d="M109.4928,27.6571207 C105.402133,27.6571207 102.640133,24.7239138 102.640133,20.3794655 C102.640133,15.9793276 105.402133,13.1018103 109.547467,13.1018103 C111.574133,13.1018103 113.2228,13.7641897 114.391467,14.9572586 L119.0548,10.3743276 C116.630133,8.19718966 113.3448,6.90977586 109.547467,6.90977586 C101.257467,6.90977586 95.5654667,12.3948793 95.5654667,20.3794655 C95.5654667,28.2002586 101.368133,33.7934655 109.4368,33.7934655 C113.284133,33.7934655 116.7128,32.3920517 119.216133,30.0982931 L114.545467,25.5081552 C113.331467,26.8551897 111.576133,27.6571207 109.4928,27.6571207" id="Fill-9" fill="#343F49"></path>
                <path d="M78.4354667,6.91462414 C75.8488,6.91462414 73.5154667,7.44858966 71.5288,8.42676207 L71.5288,6.91462414 L64.4568,6.91462414 L64.4568,33.7924172 L71.5361333,33.7924172 L71.5361333,20.3810379 C71.5361333,15.9822103 74.2914667,13.1046931 78.4354667,13.1046931 C82.6348,13.1046931 85.2314667,15.9284862 85.2314667,20.4891414 L85.2314667,33.7924172 L92.3041333,33.7924172 L92.3041333,20.5979 C92.3041333,12.6703138 86.5028,6.91462414 78.4354667,6.91462414" id="Fill-11" fill="#343F49"></path>
                <path d="M153.526,27.6567931 C149.437333,27.6567931 146.675333,24.7242414 146.675333,20.3811034 C146.675333,15.9822759 149.437333,13.1047586 153.581333,13.1047586 C157.780667,13.1047586 160.377333,15.9285517 160.377333,20.4892069 C160.377333,24.6705172 157.56,27.6567931 153.526,27.6567931 L153.526,27.6567931 Z M160.432667,6.91468966 L160.432667,8.52641379 C158.448667,7.49124138 156.128667,6.91468966 153.581333,6.91468966 C145.293333,6.91468966 139.602667,12.3984828 139.602667,20.3811034 C139.602667,28.199931 145.404,33.7924828 153.471333,33.7924828 C156.026,33.7924828 158.394,33.1681034 160.432667,32.0818276 L160.432667,33.7924828 L167.45,33.7924828 L167.45,6.91468966 L160.432667,6.91468966 Z" id="Fill-13" fill="#343F49"></path>
                <path d="M132.451733,25.0866828 L132.451733,13.8105103 L135.973067,13.8105103 L135.973067,6.91482069 L132.451733,6.91482069 L132.451733,0.000131034482 L125.4084,0.000131034482 L125.4084,6.91482069 L121.8904,6.91482069 L121.8904,13.8105103 L125.4084,13.8105103 L125.4084,25.0866828 C125.4084,30.3169241 125.749733,33.7926138 132.2044,33.7926138 L136.6324,33.7926138 L136.6324,26.9139586 C133.521067,26.9139586 132.451733,26.8916828 132.451733,25.0866828" id="Fill-15" fill="#343F49"></path>
            </g>
        </g>
    </g>
</svg>